<?xml version="1.0" standalone="no"?>
<!DOCTYPE svg PUBLIC "-//W3C//DTD SVG 20010904//EN"
 "http://www.w3.org/TR/2001/REC-SVG-20010904/DTD/svg10.dtd">
<svg version="1.0" xmlns="http://www.w3.org/2000/svg"
 width="500.000000pt" height="500.000000pt" viewBox="0 0 500.000000 500.000000"
 preserveAspectRatio="xMidYMid meet">

<g transform="translate(0.000000,500.000000) scale(0.100000,-0.100000)"
fill="#000000" stroke="none">
<path d="M2695 4264 c-161 -81 -308 -162 -435 -238 -74 -45 -146 -86 -160 -93
-24 -11 -24 -11 -3 -12 12 -1 27 -3 35 -4 7 -2 10 -2 5 0 -11 7 2 23 18 23 7
0 43 19 79 43 101 65 149 94 179 108 15 7 27 15 27 19 0 4 6 7 13 7 7 0 52 23
100 51 48 29 91 52 95 52 4 0 28 11 54 25 l46 24 16 -24 c9 -13 13 -31 10 -39
-3 -9 -1 -16 5 -16 7 0 11 21 11 55 0 38 -4 55 -12 55 -7 -1 -44 -17 -83 -36z"/>
<path d="M1226 4178 c-14 -20 -16 -108 -16 -753 0 -677 1 -733 18 -762 23 -43
148 -187 296 -340 l122 -126 39 13 c52 16 307 129 319 140 10 10 -16 45 -63
84 -31 25 -29 23 8 -17 44 -46 44 -47 26 -67 -10 -11 -25 -20 -34 -20 -9 0
-26 -7 -38 -15 -11 -8 -39 -17 -62 -21 -22 -4 -41 -10 -41 -14 0 -15 -59 -32
-87 -25 -17 5 -55 38 -98 85 -38 43 -90 100 -115 127 -62 68 -132 149 -177
207 l-38 49 -6 416 c-4 229 -7 559 -8 735 -1 314 -1 318 19 313 11 -3 18 -1
14 4 -11 18 -63 9 -78 -13z"/>
<path d="M1345 4170 c27 -12 43 -12 25 0 -8 5 -22 9 -30 9 -10 0 -8 -3 5 -9z"/>
<path d="M1390 4161 c0 -8 41 -23 47 -17 2 1 -8 8 -22 14 -14 6 -25 8 -25 3z"/>
<path d="M1460 4136 c0 -2 7 -7 16 -10 8 -3 12 -2 9 4 -6 10 -25 14 -25 6z"/>
<path d="M2771 4114 c0 -11 3 -14 6 -6 3 7 2 16 -1 19 -3 4 -6 -2 -5 -13z"/>
<path d="M1518 4113 c7 -3 16 -2 19 1 4 3 -2 6 -13 5 -11 0 -14 -3 -6 -6z"/>
<path d="M1584 4096 c11 -9 24 -16 30 -16 12 0 7 5 -24 19 -24 11 -24 11 -6
-3z"/>
<path d="M1630 4080 c0 -5 5 -10 11 -10 5 0 7 5 4 10 -3 6 -8 10 -11 10 -2 0
-4 -4 -4 -10z"/>
<path d="M1690 4060 c0 -5 5 -10 11 -10 5 0 7 5 4 10 -3 6 -8 10 -11 10 -2 0
-4 -4 -4 -10z"/>
<path d="M2762 3975 c0 -16 2 -22 5 -12 2 9 2 23 0 30 -3 6 -5 -1 -5 -18z"/>
<path d="M1968 3963 c7 -3 16 -2 19 1 4 3 -2 6 -13 5 -11 0 -14 -3 -6 -6z"/>
<path d="M2914 3933 c4 -4 42 -21 86 -39 164 -65 260 -145 318 -266 79 -164
62 -338 -50 -513 -24 -39 -47 -78 -51 -87 -3 -10 -10 -18 -15 -18 -5 0 -9 -7
-9 -16 0 -15 2 -15 13 0 7 10 14 16 16 14 9 -7 99 105 136 169 55 94 74 154
80 251 8 136 -32 239 -129 334 -60 58 -171 120 -269 147 -25 8 -58 17 -74 22
-35 11 -62 12 -52 2z"/>
<path d="M2725 3810 c-5 -9 -123 -80 -246 -148 -31 -17 -60 -28 -63 -25 -3 4
-6 1 -6 -5 0 -12 -172 -112 -192 -112 -7 0 -127 38 -266 85 -140 46 -268 87
-285 90 -31 6 -32 5 -35 -32 -2 -34 1 -39 20 -41 13 -1 124 -35 248 -77 123
-41 234 -75 245 -75 12 0 107 49 211 108 360 206 417 242 385 242 -5 0 -12 -4
-16 -10z"/>
<path d="M3796 3391 c-4 -6 -5 -29 -1 -49 10 -59 -12 -203 -45 -297 -37 -103
-77 -177 -146 -272 -29 -39 -50 -74 -46 -79 4 -4 2 -4 -5 0 -6 3 -16 -1 -21
-11 -6 -9 -40 -47 -76 -83 -51 -51 -62 -66 -47 -67 21 -2 69 47 64 64 -2 6 4
10 14 9 11 0 24 12 35 32 19 39 32 55 22 27 -4 -11 5 -5 22 15 16 19 42 48 57
64 41 44 114 165 148 245 41 98 62 210 57 301 -5 78 -19 123 -32 101z m-283
-756 c-3 -9 -8 -14 -10 -11 -3 3 -2 9 2 15 9 16 15 13 8 -4z m-70 -70 c-10
-13 -22 -25 -27 -25 -5 0 1 11 14 25 30 32 36 32 13 0z"/>
<path d="M1633 3383 c9 -14 47 -24 47 -12 0 5 -4 9 -9 9 -5 0 -17 3 -27 7 -11
4 -15 3 -11 -4z"/>
<path d="M1696 3361 c5 -5 20 -12 34 -15 24 -7 24 -6 6 8 -21 17 -57 23 -40 7z"/>
<path d="M2500 3331 c-95 -55 -228 -144 -205 -136 11 4 26 8 33 9 7 1 22 10
33 19 10 9 22 17 25 17 3 0 31 17 62 39 74 49 114 69 130 64 6 -3 12 2 12 11
0 24 -19 19 -90 -23z"/>
<path d="M1764 3341 c3 -5 16 -11 28 -14 22 -6 22 -5 4 8 -22 17 -40 20 -32 6z"/>
<path d="M1824 3321 c3 -5 16 -11 28 -14 22 -6 22 -5 4 8 -22 17 -40 20 -32 6z"/>
<path d="M1890 3301 c0 -8 41 -23 47 -17 2 1 -8 8 -22 14 -14 6 -25 8 -25 3z"/>
<path d="M1950 3280 c0 -5 7 -10 16 -10 8 0 12 5 9 10 -3 6 -10 10 -16 10 -5
0 -9 -4 -9 -10z"/>
<path d="M2010 3260 c0 -5 7 -10 16 -10 8 0 12 5 9 10 -3 6 -10 10 -16 10 -5
0 -9 -4 -9 -10z"/>
<path d="M2080 3240 c0 -5 5 -10 11 -10 5 0 7 5 4 10 -3 6 -8 10 -11 10 -2 0
-4 -4 -4 -10z"/>
<path d="M2125 3220 c28 -12 37 -12 30 0 -3 6 -16 10 -28 9 -21 0 -21 -1 -2
-9z"/>
<path d="M2207 3199 c7 -7 15 -10 18 -7 3 3 -2 9 -12 12 -14 6 -15 5 -6 -5z"/>
<path d="M2480 3079 c-22 -18 -22 -19 -3 -10 12 6 25 16 28 21 9 15 3 12 -25
-11z"/>
<path d="M1640 3025 c0 -22 5 -35 13 -35 7 0 109 -31 225 -70 116 -38 219 -70
229 -70 17 0 287 160 308 183 6 6 -1 4 -15 -5 -172 -104 -223 -130 -248 -124
-15 4 -131 40 -258 81 -127 41 -236 75 -242 75 -7 0 -12 -15 -12 -35z"/>
<path d="M1640 2753 c0 -5 10 -18 23 -29 l22 -19 -20 25 c-11 14 -21 27 -22
29 -2 2 -3 0 -3 -6z"/>
<path d="M1785 2590 c27 -27 51 -50 54 -50 3 0 -17 23 -44 50 -27 28 -51 50
-54 50 -3 0 17 -22 44 -50z"/>
<path d="M3376 2509 c2 -4 0 -10 -6 -14 -5 -3 -10 -1 -10 6 0 16 -88 -62 -89
-79 -1 -20 16 -11 75 38 56 48 62 57 39 57 -8 0 -12 -4 -9 -8z m-28 -33 c-7
-8 -15 -12 -17 -11 -5 6 10 25 20 25 5 0 4 -6 -3 -14z m-28 -24 c0 -4 -10 -13
-22 -21 -23 -14 -23 -14 -4 8 20 22 26 25 26 13z"/>
<path d="M3248 2393 c7 -3 16 -2 19 1 4 3 -2 6 -13 5 -11 0 -14 -3 -6 -6z"/>
<path d="M3155 2339 c-33 -28 -59 -55 -57 -60 1 -6 -3 -9 -10 -6 -7 2 -31 -10
-53 -28 -22 -17 -50 -37 -63 -44 -12 -7 -20 -17 -16 -23 5 -7 2 -8 -6 -3 -8 5
-18 1 -27 -10 -7 -11 -13 -16 -13 -12 0 3 -78 -45 -172 -108 -236 -155 -281
-192 -93 -75 50 30 103 62 118 70 16 8 40 24 53 37 14 12 25 23 27 23 33 8 47
14 47 19 0 4 19 18 43 31 46 26 54 32 97 72 16 14 31 24 34 21 6 -6 40 26 42
39 1 4 2 11 3 16 1 4 6 0 11 -8 8 -13 10 -12 10 3 0 10 4 16 9 13 11 -7 46 19
46 35 0 7 6 14 14 17 9 3 11 0 6 -9 -5 -8 -4 -11 1 -6 5 5 9 14 9 20 1 7 7 11
14 9 7 -1 10 2 6 8 -10 16 -16 12 -80 -41z"/>
<path d="M2605 2162 c-276 -143 -464 -209 -700 -246 -55 -9 -130 -21 -166 -27
-83 -13 -342 -16 -554 -7 -190 9 -170 -4 37 -22 220 -20 499 -6 693 35 27 6
38 -2 118 -76 84 -78 89 -81 116 -70 15 7 56 42 92 79 l64 67 -67 -65 -68 -64
-65 64 c-63 63 -71 80 -36 80 27 0 242 70 268 87 12 8 27 12 33 8 5 -3 10 -1
10 6 0 9 3 9 14 -1 12 -9 19 -5 38 24 17 26 50 49 123 87 116 60 185 99 185
105 0 6 4 8 -135 -64z"/>
<path d="M1880 2160 c-8 -5 -12 -11 -9 -14 2 -3 11 -1 19 4 8 5 12 11 9 14 -2
3 -11 1 -19 -4z"/>
<path d="M1762 2117 c-41 -17 -69 -33 -62 -35 6 -2 18 -1 28 4 9 4 22 6 29 5
6 -1 14 3 18 9 3 5 15 10 26 10 11 0 18 4 15 9 -4 5 6 14 21 19 16 6 21 10 13
10 -8 0 -48 -14 -88 -31z"/>
<path d="M3098 2094 c-38 -20 -36 -28 2 -9 17 9 30 18 30 20 0 7 -1 6 -32 -11z"/>
<path d="M2945 2020 c-55 -27 -95 -49 -90 -49 6 -1 55 21 110 48 55 27 96 49
90 49 -5 0 -55 -22 -110 -48z"/>
<path d="M2364 1968 l-19 -23 23 19 c21 18 27 26 19 26 -2 0 -12 -10 -23 -22z"/>
<path d="M2755 1945 c-33 -13 -53 -24 -45 -24 8 0 42 11 75 24 33 13 53 24 45
24 -8 0 -42 -11 -75 -24z"/>
<path d="M2580 1894 c-84 -25 -106 -34 -79 -34 20 0 197 59 179 59 -8 0 -53
-11 -100 -25z"/>
<path d="M708 1500 c-17 -14 -18 -38 -16 -440 l3 -425 230 -3 c127 -1 264 1
305 5 74 8 75 8 77 38 1 20 0 23 -4 7 l-4 -22 -272 2 -272 3 -3 418 -2 417
274 0 c253 0 275 -1 279 -17 4 -17 5 -17 6 0 0 10 -5 20 -12 23 -7 2 -138 5
-292 7 -236 2 -282 0 -297 -13z"/>
<path d="M1580 1505 c-91 -24 -151 -69 -186 -141 -24 -48 -26 -63 -21 -120 13
-132 64 -178 269 -244 134 -43 178 -70 178 -109 0 -35 -22 -69 -52 -82 -41
-17 -118 -5 -141 22 -10 12 -20 20 -23 17 -9 -9 56 -58 79 -60 12 0 35 -2 52
-3 55 -4 137 30 118 49 -4 3 -1 6 5 6 6 0 17 18 23 40 21 69 -14 101 -146 135
-94 24 -183 65 -228 104 -69 61 -86 195 -38 292 21 41 28 47 89 67 37 12 76
23 87 25 l20 3 -20 5 c-11 3 -40 0 -65 -6z"/>
<path d="M1795 1505 c23 -8 83 -10 79 -3 -3 4 -24 8 -47 7 -23 0 -37 -2 -32
-4z"/>
<path d="M2140 1486 c-20 -9 -20 -18 -20 -428 l0 -418 83 0 c47 1 95 7 112 15
29 13 26 13 -47 14 l-78 1 -1 318 c-1 174 -3 356 -5 405 l-3 87 111 0 c61 0
109 2 106 5 -9 10 -237 10 -258 1z"/>
<path d="M2850 1490 c-48 -6 -43 -7 43 -8 63 -1 96 2 92 8 -7 11 -47 11 -135
0z"/>
<path d="M3232 1490 c-139 -4 -175 -8 -182 -20 -11 -17 -13 -120 -4 -144 5
-13 25 -16 110 -16 l104 0 0 -330 0 -330 79 0 c73 0 141 14 141 28 0 4 -34 6
-75 4 l-75 -4 0 331 0 331 -27 1 c-16 0 -47 0 -71 -1 -24 -1 -61 1 -83 5 l-39
7 0 64 0 64 286 0 c191 0 283 3 279 10 -6 10 -84 10 -443 0z"/>
<path d="M1906 1475 c10 -8 23 -15 28 -15 6 0 1 7 -10 15 -10 8 -23 15 -28 15
-6 0 -1 -7 10 -15z"/>
<path d="M2737 1477 c-17 -12 -54 -102 -133 -319 -35 -97 -35 -97 -17 -133
l18 -35 64 173 c35 94 74 199 86 232 12 33 26 68 30 78 9 21 -22 24 -48 4z"/>
<path d="M3748 1479 c-17 -9 -18 -40 -18 -419 l0 -410 80 0 c75 0 126 12 142
35 4 5 8 60 8 121 l0 111 79 6 c76 6 184 36 205 57 10 10 -44 -2 -65 -15 -6
-4 -54 -9 -107 -10 -54 -2 -103 -4 -109 -4 -10 -1 -13 -32 -13 -118 0 -125 -6
-147 -36 -142 -11 2 -24 1 -29 -3 -6 -4 -25 3 -43 14 l-32 20 -1 356 c0 197
-2 367 -5 379 -4 22 -3 23 149 26 l152 3 -170 1 c-101 2 -177 -2 -187 -8z"/>
<path d="M4168 1463 c7 -3 16 -2 19 1 4 3 -2 6 -13 5 -11 0 -14 -3 -6 -6z"/>
<path d="M4207 1449 c7 -7 15 -10 18 -7 3 3 -2 9 -12 12 -14 6 -15 5 -6 -5z"/>
<path d="M1301 1434 c0 -11 3 -14 6 -6 3 7 2 16 -1 19 -3 4 -6 -2 -5 -13z"/>
<path d="M4250 1427 c0 -2 15 -16 33 -33 l32 -29 -29 33 c-28 30 -36 37 -36
29z"/>
<path d="M1691 1369 c-25 -5 -52 -16 -60 -25 -15 -15 -14 -15 6 -5 31 16 76
14 123 -5 42 -17 60 -39 60 -73 0 -27 33 -35 121 -29 78 6 100 19 98 57 l-2
26 -4 -27 c-4 -27 -6 -28 -69 -28 l-65 0 -19 44 c-27 60 -95 84 -189 65z"/>
<path d="M1300 1361 c0 -11 -38 -12 -185 -6 -177 7 -185 7 -185 -11 0 -18 11
-19 175 -19 152 0 176 2 192 17 9 10 14 21 10 24 -4 4 -7 2 -7 -5z"/>
<path d="M3585 1341 c-78 -5 -100 -9 -103 -21 -4 -23 171 -11 195 13 10 9 15
16 13 15 -3 -1 -50 -4 -105 -7z"/>
<path d="M3965 1333 c-12 -11 -15 -39 -13 -126 l2 -112 3 108 4 107 55 0 c45
0 59 -4 79 -25 21 -20 25 -34 25 -83 0 -69 -24 -109 -68 -114 -15 -2 -22 -6
-17 -9 6 -3 33 -1 62 3 45 8 55 14 78 50 47 70 30 172 -32 196 -49 18 -162 22
-178 5z"/>
<path d="M922 1210 c0 -14 2 -19 5 -12 2 6 2 18 0 25 -3 6 -5 1 -5 -13z"/>
<path d="M2340 1152 c0 -43 4 -82 8 -87 5 -6 32 -69 61 -141 64 -161 73 -174
114 -174 46 1 108 16 123 32 11 11 4 12 -44 10 -54 -3 -58 -2 -69 25 -141 333
-177 413 -185 413 -4 0 -8 -35 -8 -78z"/>
<path d="M1644 1197 c32 -27 276 -106 254 -83 -3 4 -12 9 -20 10 -7 2 -26 8
-41 14 -15 7 -40 15 -55 18 -49 11 -117 35 -142 50 -21 13 -20 11 4 -9z"/>
<path d="M2827 1188 c-48 -116 -48 -114 -45 -328 l3 -205 97 0 c64 0 101 4
110 13 10 9 -2 12 -60 12 l-72 0 0 270 c0 171 -4 270 -10 270 -5 0 -16 -15
-23 -32z"/>
<path d="M4341 1144 c0 -11 3 -14 6 -6 3 7 2 16 -1 19 -3 4 -6 -2 -5 -13z"/>
<path d="M1934 1085 c16 -9 37 -25 48 -37 10 -12 20 -19 23 -16 9 9 -64 68
-83 68 -11 0 -7 -6 12 -15z"/>
<path d="M4315 1076 c-16 -19 -47 -76 -41 -76 8 0 60 80 55 84 -2 2 -8 -1 -14
-8z"/>
<path d="M930 994 c0 -13 19 -15 155 -12 106 2 158 7 167 16 10 9 -21 12 -155
12 -145 0 -167 -2 -167 -16z"/>
<path d="M2015 1000 c3 -5 8 -10 11 -10 2 0 4 5 4 10 0 6 -5 10 -11 10 -5 0
-7 -4 -4 -10z"/>
<path d="M1371 921 c-19 -12 -9 -96 18 -149 25 -48 81 -98 140 -126 64 -28
219 -27 309 2 64 20 142 67 142 84 0 5 -10 0 -21 -11 -34 -32 -81 -50 -155
-60 -174 -25 -314 40 -358 166 -31 87 -30 87 54 94 l75 5 -95 2 c-52 1 -101
-2 -109 -7z"/>
<path d="M2676 855 c-9 -26 -7 -32 5 -12 6 10 9 21 6 23 -2 3 -7 -2 -11 -11z"/>
<path d="M1017 803 c51 -2 135 -2 185 0 51 1 10 3 -92 3 -102 0 -143 -2 -93
-3z"/>
<path d="M2005 780 c-9 -16 -13 -30 -11 -30 3 0 12 14 21 30 9 17 13 30 11 30
-3 0 -12 -13 -21 -30z"/>
</g>
</svg>
